<svg width="32" height="32" viewBox="0 0 32 32" fill="none" xmlns="http://www.w3.org/2000/svg">
<path d="M15.5 2C7.51768 2 1 8.50083 1 16.5C1 24.4992 7.51768 31 15.5 31C23.4823 31 30 24.4992 30 16.5C30 8.50083 23.5067 2 15.5 2ZM15.5 29.8642C14.7189 29.8642 13.9621 29.7917 13.2298 29.6708C13.2542 29.6225 13.2786 29.5983 13.303 29.55C14.9874 26.8917 14.0109 24.5475 12.4731 22.5417C13.6936 21.8167 14.6944 20.7292 15.4512 19.3275C16.2323 20.7775 17.2576 21.865 18.5269 22.6142C17.9899 23.3392 17.5505 24.1125 17.2332 24.8858C16.5741 26.5533 16.7205 28.1 17.6237 29.5983C17.6481 29.6467 17.6726 29.6708 17.697 29.7192C16.9646 29.8158 16.2323 29.8642 15.5 29.8642ZM9.22643 20.9225C9.59259 21.3092 9.93434 21.6717 10.2761 22.0342C7.90825 22.445 6.10185 21.9133 5.24747 20.5358C4.56397 19.4242 4.68603 17.9983 5.5404 16.9592C6.80976 15.4125 9.29966 15.1225 12.229 16.1858L12.8392 15.0258C11.8872 14.3733 11.399 13.2375 11.3013 11.4733L9.98316 11.5458C10.032 12.3917 10.154 13.4308 10.6423 14.3975C9.27525 14.1558 8.00589 14.2042 6.93182 14.5425C6.83417 12.295 8.32323 10.845 9.95875 10.5308C11.6675 10.2167 13.9377 11.0867 14.7433 14.615H16.1347C16.5985 12.6333 17.5017 11.4975 18.5269 10.9175L18.1608 9.6125C17.0867 10.12 16.0859 11.0867 15.4268 12.5367C14.5724 10.6517 13.2054 9.6125 11.7652 9.27417C11.8628 9.0325 11.9604 8.815 12.0825 8.62167C13.2054 6.68833 15.8418 6.1325 17.6726 7.4375C18.3561 7.92083 18.771 8.57333 19.1128 9.27417C19.2593 9.70917 19.3813 10.1442 19.4301 10.555C19.601 12.4158 19.0152 14.325 18.0387 15.0017L18.649 16.1617C20.1869 15.6058 21.6027 15.4367 22.7988 15.6058L23.165 14.325C22.2618 14.1558 21.2365 14.18 20.138 14.3975C20.6507 13.31 20.8948 11.9083 20.7727 10.4825C20.8215 10.4825 20.8704 10.5067 20.9436 10.5067C22.6035 10.8208 24.0926 12.2708 23.9705 14.5183C23.8729 14.9775 23.7508 15.4125 23.5556 15.775C23.1894 17.08 21.9444 18.5058 20.6507 20.0042C20.3822 20.2942 20.138 20.6083 19.8695 20.9225L21.2121 21.4058C21.3586 21.2367 21.505 21.0675 21.6759 20.8742C23.0185 19.3517 24.2879 17.8775 24.8005 16.3792C25.0202 16.5483 25.2155 16.7417 25.4108 16.9592C26.2652 17.9983 26.3872 19.4483 25.7037 20.5358C24.8493 21.8892 23.0429 22.445 20.6995 22.0342C20.5774 22.01 20.431 21.9858 20.3089 21.9617C19.9916 21.8408 19.6742 21.72 19.3813 21.5508C17.8923 20.7533 16.7938 19.3517 16.0614 17.3217H14.9386C14.2062 19.3275 13.1322 20.705 11.6675 21.5025C11.1793 20.9708 10.6911 20.4633 10.2273 19.98C9.12879 18.8683 8.10353 17.805 7.78619 16.9108L6.54125 17.3458C6.883 18.53 8.0303 19.69 9.22643 20.9225ZM19.064 29.3808C19.0396 29.3567 19.0152 29.3083 18.9907 29.2842C17.5017 27.2542 18.112 25.3692 19.7475 23.17C19.7719 23.1942 19.8207 23.1942 19.8451 23.2183L19.9183 23.2425C20.7239 23.4117 21.4562 23.4842 22.1153 23.4842C24.9958 23.4842 26.314 21.9858 26.7778 21.2125C27.7542 19.6417 27.6077 17.5875 26.3872 16.1133C26.0699 15.7267 25.6793 15.3883 25.2643 15.1225C25.7037 11.86 23.5067 9.66083 21.1877 9.22583C20.968 9.1775 20.7483 9.15333 20.5286 9.15333C19.8695 7.63083 18.8199 5.77 15.6221 5.335H15.5244H15.4024H15.3047H15.2315C12.0825 5.79417 11.0572 7.63083 10.3981 9.15333C10.1785 9.15333 9.95875 9.20167 9.73906 9.22583C7.39562 9.66083 5.19865 11.86 5.63805 15.1225C5.22306 15.3883 4.83249 15.7267 4.51515 16.1133C3.29461 17.5875 3.14815 19.6417 4.12458 21.2125C4.58838 21.9617 5.88215 23.4842 8.78704 23.4842C9.42172 23.4842 10.154 23.4117 10.984 23.2425L11.0572 23.2183C11.1305 23.1942 11.2037 23.17 11.2525 23.1458C12.888 25.2 13.5471 27.085 11.9116 29.26C11.8872 29.2842 11.8628 29.3325 11.8384 29.3567C6.24832 27.7375 2.1229 22.59 2.1229 16.5C2.1229 9.12917 8.12795 3.13583 15.5 3.13583C22.8721 3.13583 28.8771 9.12917 28.8771 16.5C28.8771 22.6383 24.7273 27.81 19.064 29.3808Z" fill="white"/>
</svg>
