<svg xmlns="http://www.w3.org/2000/svg" xmlns:xlink="http://www.w3.org/1999/xlink" version="1.1" id="Слой_1" x="0px" y="0px" viewBox="0 0 298.1 120" style="enable-background:new 0 0 298.1 120;" xml:space="preserve">
<style type="text/css">
	.st0{fill:#FFFFFF;}
</style>
<g>
	<polygon class="st0" points="157.2,24 166.4,24 166.4,56.4 157.2,56.4 157.2,44.5 149.3,44.5 149.3,56.4 140.1,56.4 140.1,24    149.3,24 149.3,35.5 157.2,35.5  "/>
	<polygon class="st0" points="180.3,47.9 192.3,47.9 192.3,56.4 171.1,56.4 171.1,24 192.1,24 192.1,32.4 180.3,32.4 180.3,36    190.9,36 190.9,44.3 180.3,44.3  "/>
	<path class="st0" d="M215.2,56.4l-1.1-4.2h-9.3l-1.1,4.2h-9.9L204,24h10.8l10.3,32.3H215.2z M206.7,44.8h5.4l-2.7-9.9L206.7,44.8z"/>
	<polygon class="st0" points="236.2,47.4 246.8,47.4 246.8,56.4 226.9,56.4 226.9,24 236.2,24  "/>
	<polygon class="st0" points="269,24 269,33 261.3,33 261.3,56.4 252.1,56.4 252.1,33 244.5,33 244.5,24  "/>
	<polygon class="st0" points="288.8,24 298.1,24 298.1,56.4 288.8,56.4 288.8,44.5 281,44.5 281,56.4 271.7,56.4 271.7,24 281,24    281,35.5 288.8,35.5  "/>
	<path class="st0" d="M154.7,97.4c-4.2,0-7.7-1.4-10.5-4.2c-2.8-2.8-4.1-6.2-4.1-10.2c0-4,1.4-7.4,4.1-10.2   c2.8-2.8,6.2-4.2,10.5-4.2c2.6,0,4.9,0.6,7.1,1.8c2.1,1.2,3.8,2.9,5,5l-2.5,1.4c-0.9-1.7-2.2-3-3.9-4.1c-1.7-1-3.6-1.5-5.7-1.5   c-3.5,0-6.3,1.1-8.5,3.4c-2.2,2.3-3.3,5-3.3,8.3c0,3.3,1.1,6.1,3.3,8.3c2.2,2.3,5,3.4,8.5,3.4c2.1,0,4-0.5,5.7-1.5   c1.7-1,3-2.4,3.9-4.1l2.5,1.4c-1.1,2.1-2.8,3.8-4.9,5C159.6,96.8,157.3,97.4,154.7,97.4"/>
	<polygon class="st0" points="174.1,94.3 186.8,94.3 186.8,96.9 171.3,96.9 171.3,69.1 174.1,69.1  "/>
	<path class="st0" d="M207.8,94.7c-1.9,1.8-4.4,2.7-7.5,2.7c-3.1,0-5.6-0.9-7.5-2.7c-1.9-1.8-2.9-4.2-2.9-7.2V69.1h2.8v18.4   c0,2.2,0.7,4,2,5.3c1.3,1.3,3.2,1.9,5.6,1.9c2.4,0,4.2-0.6,5.6-1.9c1.3-1.3,2-3.1,2-5.3V69.1h2.8v18.4   C210.6,90.5,209.7,92.9,207.8,94.7"/>
	<path class="st0" d="M232,82.5c1.4,0.6,2.4,1.5,3.2,2.6c0.8,1.2,1.2,2.5,1.2,4c0,2.1-0.8,4-2.3,5.5c-1.5,1.5-3.3,2.3-5.5,2.3h-12.1   V69.1h11.2c2.1,0,3.8,0.7,5.3,2.2c1.5,1.5,2.2,3.2,2.2,5.3C235.3,79.2,234.2,81.1,232,82.5 M227.8,71.7h-8.4v9.7h8.4   c1.3,0,2.4-0.5,3.3-1.4s1.4-2.1,1.4-3.4c0-1.3-0.5-2.5-1.4-3.4C230.2,72.2,229.1,71.7,227.8,71.7 M228.7,94.3   c1.4,0,2.5-0.5,3.5-1.5c1-1,1.5-2.2,1.5-3.6c0-1.4-0.5-2.6-1.5-3.6c-1-1-2.1-1.5-3.5-1.5h-9.3v10.3H228.7z"/>
	<rect x="247.2" y="81.9" class="st0" width="1.4" height="15"/>
	<path class="st0" d="M256.9,87.9h-3v6.2c0,0.6,0.1,1,0.3,1.2c0.2,0.2,0.5,0.4,1,0.4c0.4,0,1,0,1.6,0v1.2c-1.4,0.2-2.5,0.1-3.2-0.3   c-0.7-0.4-1.1-1.2-1.1-2.4v-6.2h-2.2v-1.3h2.2v-2.5l1.4-0.4v2.9h3V87.9z"/>
	<path class="st0" d="M267.4,82.5h1.4v14.4h-1.4v-2c-0.9,1.5-2.3,2.3-4.2,2.3c-1.5,0-2.7-0.5-3.8-1.6c-1-1-1.6-2.3-1.6-3.8   c0-1.5,0.5-2.8,1.6-3.8c1-1,2.3-1.6,3.8-1.6c1.8,0,3.2,0.8,4.2,2.3V82.5z M260.5,94.7c0.8,0.8,1.7,1.2,2.9,1.2s2.1-0.4,2.9-1.2   c0.8-0.8,1.2-1.8,1.2-2.9c0-1.1-0.4-2.1-1.2-2.9c-0.8-0.8-1.7-1.2-2.9-1.2s-2.1,0.4-2.9,1.2c-0.8,0.8-1.2,1.8-1.2,2.9   C259.3,92.9,259.7,93.9,260.5,94.7"/>
	<path class="st0" d="M58.5,13.8L58.5,13.8L58.5,13.8C58.5,13.8,58.5,13.8,58.5,13.8"/>
	<path class="st0" d="M59.4,0C26.7,0,0,26.9,0,60c0,33.1,26.7,60,59.4,60s59.4-26.9,59.4-60C118.8,26.9,92.2,0,59.4,0 M59.4,115.3   c-3.2,0-6.3-0.3-9.3-0.8c0.1-0.2,0.2-0.3,0.3-0.5c6.9-11,2.9-20.7-3.4-29c5-3,9.1-7.5,12.2-13.3c3.2,6,7.4,10.5,12.6,13.6   c-2.2,3-4,6.2-5.3,9.4c-2.7,6.9-2.1,13.3,1.6,19.5h0c0.1,0.2,0.2,0.3,0.3,0.5C65.4,115.1,62.4,115.3,59.4,115.3 M33.7,78.3   c1.5,1.6,2.9,3.1,4.3,4.6c-9.7,1.7-17.1-0.5-20.6-6.2c-2.8-4.6-2.3-10.5,1.2-14.8c5.2-6.4,15.4-7.6,27.4-3.2l2.5-4.8   c-3.9-2.7-5.9-7.4-6.3-14.7l-5.4,0.3c0.2,3.5,0.7,7.8,2.7,11.8c-5.6-1-10.8-0.8-15.2,0.6c-0.4-9.3,5.7-15.3,12.4-16.6   c7-1.3,16.3,2.3,19.6,16.9H62c1.9-8.2,5.6-12.9,9.8-15.3l-1.5-5.4c-4.4,2.1-8.5,6.1-11.2,12.1c-3.5-7.8-9.1-12.1-15-13.5   c0.4-1,0.8-1.9,1.3-2.7c4.6-8,15.4-10.3,22.9-4.9c2.8,2,4.5,4.7,5.9,7.6c0.6,1.8,1.1,3.6,1.3,5.3c0.7,7.7-1.7,15.6-5.7,18.4   l2.5,4.8c6.3-2.3,12.1-3,17-2.3l1.5-5.3c-3.7-0.7-7.9-0.6-12.4,0.3c2.1-4.5,3.1-10.3,2.6-16.2c0.2,0,0.4,0.1,0.7,0.1   c6.8,1.3,12.9,7.3,12.4,16.6c-0.4,1.9-0.9,3.7-1.7,5.2c-1.5,5.4-6.6,11.3-11.9,17.5c-1.1,1.2-2.1,2.5-3.2,3.8l5.5,2   c0.6-0.7,1.2-1.4,1.9-2.2c5.5-6.3,10.7-12.4,12.8-18.6c0.9,0.7,1.7,1.5,2.5,2.4c3.5,4.3,4,10.3,1.2,14.8   c-3.5,5.6-10.9,7.9-20.5,6.2c-0.5-0.1-1.1-0.2-1.6-0.3c-1.3-0.5-2.6-1-3.8-1.7c-6.1-3.3-10.6-9.1-13.6-17.5h-4.6   c-3,8.3-7.4,14-13.4,17.3c-2-2.2-4-4.3-5.9-6.3c-4.5-4.6-8.7-9-10-12.7l-5.1,1.8C24.1,68.4,28.8,73.2,33.7,78.3 M74,113.3   c-0.1-0.1-0.2-0.3-0.3-0.4c-6.1-8.4-3.6-16.2,3.1-25.3c0.1,0.1,0.3,0.1,0.4,0.2l0.3,0.1c3.3,0.7,6.3,1,9,1   c11.8,0,17.2-6.2,19.1-9.4c4-6.5,3.4-15-1.6-21.1c-1.3-1.6-2.9-3-4.6-4.1c1.8-13.5-7.2-22.6-16.7-24.4c-0.9-0.2-1.8-0.3-2.7-0.3   c-2.7-6.3-7-14-20.1-15.8l-0.4,0h-0.5l-0.4,0h0l-0.3,0c-12.9,1.9-17.1,9.5-19.8,15.8c-0.9,0-1.8,0.2-2.7,0.3   C26.2,31.7,17.2,40.8,19,54.3c-1.7,1.1-3.3,2.5-4.6,4.1c-5,6.1-5.6,14.6-1.6,21.1c1.9,3.1,7.2,9.4,19.1,9.4c2.6,0,5.6-0.3,9-1   l0.3-0.1c0.3-0.1,0.6-0.2,0.8-0.3c6.7,8.5,9.4,16.3,2.7,25.3c-0.1,0.1-0.2,0.3-0.3,0.4C21.5,106.5,4.6,85.2,4.6,60   c0-30.5,24.6-55.3,54.8-55.3c30.2,0,54.8,24.8,54.8,55.3C114.2,85.4,97.2,106.8,74,113.3"/>
</g>
</svg>